<svg width="87" height="28" viewBox="0 0 87 28" fill="none" xmlns="http://www.w3.org/2000/svg">
<g clip-path="url(#clip0_1103_92)">
<path fill-rule="evenodd" clip-rule="evenodd" d="M54.7945 6.31097C54.7931 6.08706 54.8359 5.86488 54.9219 5.65768C55.0075 5.45039 55.1345 5.26218 55.2948 5.10403C55.4547 4.94583 55.6452 4.8209 55.8549 4.73643C56.0647 4.65199 56.289 4.60978 56.5157 4.61223H57.7266V2.11274C57.6885 1.85017 57.7083 1.58263 57.7835 1.32818C57.8592 1.0738 57.9895 0.83846 58.1654 0.63812C58.3403 0.437782 58.5576 0.277202 58.8012 0.167092C59.0453 0.0569819 59.31 0 59.5776 0C59.8457 0 60.1104 0.0569819 60.3545 0.167092C60.5981 0.277202 60.8154 0.437782 60.9903 0.63812C61.1662 0.83846 61.296 1.0738 61.3722 1.32818C61.4474 1.58263 61.4671 1.85017 61.4291 2.11274V4.61223H65.3662C65.5928 4.60978 65.8171 4.65199 66.0269 4.73643C66.2362 4.8209 66.4271 4.94583 66.587 5.10403C66.7473 5.26218 66.8743 5.45039 66.9599 5.65768C67.046 5.86488 67.0888 6.08706 67.0873 6.31097C67.0845 6.76158 66.9025 7.19297 66.5799 7.51119C66.2583 7.82936 65.8214 8.00856 65.3662 8.00982H61.4291V14.0272C61.4291 16.9619 63.0797 18.4616 65.3662 18.4616C65.8265 18.4616 66.2681 18.6425 66.5936 18.9646C66.9185 19.2867 67.1015 19.7235 67.1015 20.1789C67.1015 20.6344 66.9185 21.0712 66.5936 21.3932C66.2681 21.7153 65.8265 21.8962 65.3662 21.8962C61.0227 21.8962 57.7266 18.8643 57.7266 14.0272V8.00982H56.5157C56.0605 8.00856 55.6236 7.82936 55.3019 7.51119C54.9793 7.19297 54.7973 6.76158 54.7945 6.31097ZM16.7029 13.0729C16.717 11.3911 17.2102 9.74755 18.1262 8.33369C19.0422 6.91983 20.3428 5.79376 21.8777 5.08643C23.4118 4.37913 25.1168 4.11964 26.7935 4.33825C28.4702 4.55679 30.0502 5.24445 31.3501 6.32119C31.5505 6.49432 31.7135 6.70656 31.8285 6.94493C31.9436 7.18321 32.0085 7.44245 32.0184 7.70663C32.0212 8.20433 31.8278 8.68336 31.4799 9.04129L26.3348 15.1326C26.1852 15.3255 25.9918 15.4804 25.7709 15.5848C25.5493 15.6891 25.3066 15.7399 25.0617 15.733C24.8366 15.7451 24.6101 15.7108 24.3984 15.6323C24.1867 15.5539 23.9933 15.433 23.8303 15.2771C23.6673 15.1211 23.5388 14.9335 23.4513 14.7259C23.3645 14.5184 23.3215 14.2953 23.325 14.0704C23.3144 13.8699 23.3441 13.6693 23.4125 13.4805C23.481 13.2916 23.5875 13.1185 23.7244 12.9713L27.7736 8.2516C27.111 7.84751 26.346 7.63924 25.5684 7.65119C22.6934 7.65119 20.4183 10.048 20.4183 13.0729C20.4183 16.0978 22.661 18.4947 25.5684 18.4947C26.231 18.5012 26.888 18.3712 27.4977 18.1129C28.1074 17.8546 28.6572 17.4735 29.1117 16.9938C29.1822 16.9368 29.25 16.8804 29.3163 16.8254C29.7496 16.4659 30.1102 16.1671 30.7185 16.1671C30.9549 16.1569 31.1913 16.1952 31.4129 16.2796C31.6338 16.3639 31.8356 16.4925 32.005 16.6574C32.1743 16.8224 32.3077 17.0201 32.3973 17.2384C32.4862 17.4567 32.53 17.691 32.5243 17.9266C32.4905 18.3755 32.2999 18.7985 31.9859 19.1227C31.1828 20.0207 30.1928 20.7338 29.0848 21.2123C27.9762 21.6909 26.7758 21.9234 25.5684 21.8936C24.3984 21.9117 23.2375 21.6959 22.1529 21.259C21.069 20.822 20.0845 20.1729 19.2574 19.3501C18.4304 18.5273 17.7783 17.5476 17.3394 16.4694C16.9004 15.391 16.6845 14.236 16.7029 13.0729ZM9.53308 7.96217H2.10554C1.65186 7.9597 1.21751 7.77938 0.896702 7.46032C0.575968 7.14117 0.394678 6.70913 0.392208 6.25791C0.389667 6.03344 0.432291 5.8107 0.517537 5.6028C0.602713 5.3949 0.728825 5.20604 0.888449 5.04728C1.04808 4.88852 1.23791 4.76308 1.44693 4.67833C1.65595 4.59354 1.87986 4.55119 2.10554 4.55364H13.2305C13.4562 4.55119 13.6801 4.59354 13.8891 4.67833C14.0981 4.76308 14.288 4.88852 14.4475 5.04728C14.6072 5.20604 14.7333 5.3949 14.8185 5.6028C14.9037 5.8107 14.9463 6.03344 14.9438 6.25791C14.9265 6.71244 14.7343 7.14303 14.4069 7.4606L5.36414 18.197H13.2305C13.4562 18.1944 13.6801 18.2368 13.8891 18.3216C14.0981 18.4064 14.288 18.5318 14.4475 18.6906C14.6072 18.8493 14.7333 19.0382 14.8185 19.2461C14.9037 19.454 14.9463 19.6767 14.9438 19.9012C14.9414 20.3524 14.76 20.7845 14.4393 21.1036C14.1185 21.4227 13.6842 21.6031 13.2305 21.6055H1.7134C1.25484 21.6006 0.816963 21.415 0.495735 21.0894C0.174577 20.7638 -0.00368245 20.3249 5.7688e-05 19.8687C0.0119838 19.418 0.191653 18.9878 0.504271 18.6613L9.53308 7.96217ZM39.6397 26.4082V19.8729C41.181 21.2163 43.1654 21.9513 45.2168 21.9387C50.0565 21.9387 53.7204 18.0386 53.7204 13.1009C53.7204 8.16335 50.0565 4.26321 45.2168 4.26321C43.159 4.24487 41.1683 4.99366 39.6397 6.36146V6.1299C39.5763 5.68829 39.3547 5.28416 39.0152 4.99175C38.6758 4.69943 38.2411 4.53845 37.7916 4.53845C37.342 4.53845 36.908 4.69943 36.5686 4.99175C36.2285 5.28416 36.0069 5.68829 35.9434 6.1299V26.4082C36.0069 26.8499 36.2285 27.2545 36.5686 27.5464C36.908 27.839 37.342 28 37.7916 28C38.2411 28 38.6758 27.839 39.0152 27.5464C39.3547 27.2545 39.5763 26.8499 39.6397 26.4082ZM44.8153 7.66304C47.7042 7.66304 49.9916 9.99754 49.9916 13.1009C49.9916 16.2044 47.7042 18.5389 44.8153 18.5389C41.9269 18.5389 39.6397 16.2044 39.6397 13.1009V12.8647C39.7428 9.90029 41.9269 7.66304 44.8153 7.66304ZM70.3581 8.18095C69.3818 9.63074 68.8607 11.3352 68.8607 13.0788C68.8396 14.2422 69.0554 15.3979 69.4947 16.4768C69.9344 17.5558 70.5876 18.5359 71.4176 19.3586C72.2467 20.1814 73.2347 20.83 74.3229 21.2658C75.4102 21.7015 76.5755 21.9154 77.7484 21.8947C79.5062 21.8947 81.2246 21.3777 82.6857 20.409C84.1473 19.4403 85.2863 18.0635 85.9598 16.4525C86.6322 14.8416 86.8077 13.0691 86.4648 11.3589C86.122 9.6488 85.276 8.07795 84.0321 6.84502C82.7897 5.61213 81.2063 4.77246 79.4823 4.43226C77.7583 4.09213 75.9712 4.26671 74.3469 4.93393C72.7231 5.60117 71.3348 6.7312 70.3581 8.18095ZM77.7484 7.65436C80.6965 7.65436 82.9138 10.0848 82.9138 13.0788C82.9138 16.0406 80.7017 18.5033 77.7484 18.5033C74.7951 18.5033 72.5825 16.0729 72.5825 13.0788C72.5825 10.0848 74.7998 7.65436 77.7484 7.65436Z" fill="url(#paint0_linear_1103_92)"/>
</g>
<defs>
<linearGradient id="paint0_linear_1103_92" x1="36.3004" y1="4.97518" x2="40.4928" y2="29.9831" gradientUnits="userSpaceOnUse">
<stop stop-color="#FF3269"/>
<stop offset="1" stop-color="#FF794D"/>
</linearGradient>
<clipPath id="clip0_1103_92">
<rect width="87" height="28" fill="white"/>
</clipPath>
</defs>
</svg>
